<?xml version="1.0" encoding="UTF-8" standalone="no"?>
<!DOCTYPE svg PUBLIC "-//W3C//DTD SVG 1.1//EN" "http://www.w3.org/Graphics/SVG/1.1/DTD/svg11.dtd">
<svg width="100%" height="100%" viewBox="0 0 218 236" version="1.1" xmlns="http://www.w3.org/2000/svg" xmlns:xlink="http://www.w3.org/1999/xlink" xml:space="preserve" xmlns:serif="http://www.serif.com/" style="fill-rule:evenodd;clip-rule:evenodd;stroke-linejoin:round;stroke-miterlimit:2;">
    <g transform="matrix(1,0,0,1,-209.267,-44.7293)">
        <g>
            <g>
                <g>
                    <g>
                        <g>
                            <path d="M424.723,182.05L411.738,103.521C411.425,101.627 409.777,99.357 407.949,98.302L316.107,45.277C314.279,44.221 312.883,44.734 312.897,46.455L295.868,127.999L297.8,149.336L426.205,211.657L424.723,182.05Z" style="fill:rgb(221,219,209);fill-rule:nonzero;"/>
                            <path d="M222.999,66.872L314.032,44.763L408.024,110.854L350.067,180.988L254.49,152.158L222.999,66.872Z" style="fill:rgb(221,219,209);fill-rule:nonzero;"/>
                            <path d="M340.087,238.021L209.268,162.498L220.944,69.405C221.242,67.025 223.134,66.157 225.3,67.407L333.261,129.734C335.426,130.984 337.145,133.936 337.219,136.531L340.087,238.021Z" style="fill:rgb(221,219,209);fill-rule:nonzero;"/>
                            <path d="M212.639,164.443L224,73.863C224.214,72.157 225.57,71.535 227.122,72.431L331.091,132.453C332.643,133.349 333.875,135.465 333.928,137.325L336.718,236.075L212.639,164.443Z" style="fill:rgb(88,70,66);fill-rule:nonzero;"/>
                            <path d="M340.084,238.024L340.084,261.79L211.979,189.068L209.267,186.261L209.267,162.499L340.084,238.024Z" style="fill:rgb(203,201,192);fill-rule:nonzero;"/>
                            <g>
                                <path d="M237.967,203.755L234.59,213.358L323.807,264.866L320.43,251.363L237.967,203.755Z" style="fill:rgb(171,160,144);fill-rule:nonzero;"/>
                                <path d="M237.967,203.755L234.59,213.358L230.941,215.465L227.564,201.962L237.967,203.755Z" style="fill:rgb(187,179,165);fill-rule:nonzero;"/>
                                <path d="M342.795,264.593L211.979,189.068L211.979,204.517L230.941,215.465L234.318,205.862L316.78,253.471L320.157,266.973L342.795,280.042L342.795,264.593Z" style="fill:rgb(197,194,184);fill-rule:nonzero;"/>
                            </g>
                            <path d="M340.084,261.79L342.795,264.593L211.979,189.068L209.267,186.265L340.084,261.79Z" style="fill:rgb(171,160,144);fill-rule:nonzero;"/>
                            <path d="M334.409,247.753L214.942,178.779C213.669,178.044 212.638,176.073 212.638,174.376L212.638,164.444L336.713,236.079L336.713,246.011C336.713,247.708 335.681,248.488 334.409,247.753Z" style="fill:rgb(79,60,56);fill-rule:nonzero;"/>
                            <path d="M317.906,219.053L231.993,169.455C228.835,167.632 226.43,162.724 226.622,158.494L229.74,89.624C229.931,85.393 232.647,83.442 235.805,85.265L321.718,134.863C324.876,136.686 327.281,141.594 327.089,145.824L323.971,214.694C323.78,218.924 321.064,220.876 317.906,219.053Z" style="fill:url(#_Linear1);fill-rule:nonzero;"/>
                            <path d="M235.805,85.264L256.002,96.924C256.288,97.427 256.544,97.915 256.76,98.383C262.329,110.439 254.234,154.885 246.573,155.32C235.549,155.947 226.623,158.493 226.623,158.493L229.741,89.623C229.932,85.392 232.647,83.44 235.805,85.264Z" style="fill:url(#_Linear2);fill-rule:nonzero;"/>
                            <path d="M318.975,206.842C291.73,196.051 255.106,174.136 243.554,163.3C240.602,160.531 237.939,155.82 237.591,151.132C236.73,139.517 237.254,114.158 240.118,95.319C240.587,92.234 241.855,90.223 243.68,89.81L321.718,134.862C324.876,136.685 327.281,141.593 327.089,145.823L324.359,206.128C323.16,207.5 321.252,207.744 318.975,206.842Z" style="fill:rgb(190,212,254);fill-rule:nonzero;"/>
                            <path d="M316.627,193.322C316.627,193.322 278.566,178.041 246.976,153.112C246.976,153.112 245.171,127.525 249.199,104.001C249.199,104.001 278.606,123.528 318.85,144.211C318.85,144.211 315.918,168.229 316.627,193.322Z" style="fill:rgb(94,129,242);fill-rule:nonzero;"/>
                        </g>
                        <path d="M330.209,240.757L326.098,238.383C325.456,238.013 324.936,237.019 324.936,236.164C324.936,235.309 325.456,234.915 326.098,235.286L330.209,237.66C330.851,238.03 331.371,239.024 331.371,239.879C331.371,240.734 330.851,241.127 330.209,240.757Z" style="fill:rgb(141,242,61);fill-rule:nonzero;"/>
                    </g>
                    <path d="M426.204,211.656L340.087,238.021L337.22,136.532L411.738,103.521L424.723,182.051L426.204,211.656Z" style="fill:rgb(187,179,165);fill-rule:nonzero;"/>
                    <path d="M342.795,280.042L342.795,264.593L340.084,261.79L340.084,238.024L424.721,182.05L426.656,220.678L342.795,280.042Z" style="fill:rgb(171,160,144);fill-rule:nonzero;"/>
                </g>
                <path d="M256.787,121.117L251.447,117.591L251.801,115.059L257.141,118.586L256.787,121.117Z" style="fill:rgb(190,212,254);fill-rule:nonzero;"/>
            </g>
            <path d="M237.459,157.527C235.771,153.946 236.09,149.726 235.999,148.996C235.908,148.266 231.163,154.242 229.019,155.155C226.875,156.067 226.784,155.201 226.784,155.201C226.784,155.201 226.673,157.311 226.624,158.212C226.588,158.875 227.026,162.587 228.631,165.593C229.207,166.673 231.744,163.709 234.618,162.614C237.492,161.519 242.614,164.432 242.614,164.432C242.614,164.432 238.861,160.501 237.459,157.527Z" style="fill:rgb(79,106,119);fill-rule:nonzero;"/>
        </g>
    </g>
    <defs>
        <linearGradient id="_Linear1" x1="0" y1="0" x2="1" y2="0" gradientUnits="userSpaceOnUse" gradientTransform="matrix(37.41,-64.7961,64.7961,37.41,258.151,184.556)"><stop offset="0" style="stop-color:rgb(71,70,72);stop-opacity:1"/><stop offset="0.03" style="stop-color:rgb(71,70,72);stop-opacity:1"/><stop offset="0.15" style="stop-color:rgb(67,96,110);stop-opacity:1"/><stop offset="1" style="stop-color:rgb(67,96,110);stop-opacity:1"/></linearGradient>
        <linearGradient id="_Linear2" x1="0" y1="0" x2="1" y2="0" gradientUnits="userSpaceOnUse" gradientTransform="matrix(30.3372,1.0594,-1.0594,30.3372,227.916,121.461)"><stop offset="0" style="stop-color:rgb(64,63,65);stop-opacity:1"/><stop offset="0.03" style="stop-color:rgb(64,63,65);stop-opacity:1"/><stop offset="0.35" style="stop-color:rgb(67,96,110);stop-opacity:1"/><stop offset="1" style="stop-color:rgb(67,96,110);stop-opacity:1"/></linearGradient>
    </defs>
</svg>
