<?xml version="1.0" encoding="UTF-8" standalone="no"?>
<!DOCTYPE svg PUBLIC "-//W3C//DTD SVG 1.1//EN" "http://www.w3.org/Graphics/SVG/1.1/DTD/svg11.dtd">
<svg width="100%" height="100%" viewBox="0 0 430 363" version="1.1" xmlns="http://www.w3.org/2000/svg" xmlns:xlink="http://www.w3.org/1999/xlink" xml:space="preserve" xmlns:serif="http://www.serif.com/" style="fill-rule:evenodd;clip-rule:evenodd;stroke-linejoin:round;stroke-miterlimit:2;">
    <g transform="matrix(1,0,0,1,-103.203,-44.7293)">
        <g>
            <g>
                <path d="M347.576,367.365L318.183,350.396C313.878,347.911 311.308,343.459 311.308,338.489C311.308,333.518 313.878,329.067 318.183,326.582L348.442,309.112C349.686,308.394 350.429,307.107 350.429,305.67C350.429,304.233 349.686,302.947 348.442,302.228C346.398,301.048 345.177,298.934 345.177,296.574C345.177,294.213 346.397,292.1 348.442,290.919L470.323,220.551C476.383,217.052 480.022,210.786 480.058,203.789C480.094,196.792 476.519,190.488 470.495,186.928L462.195,182.021C450.352,175.021 435.595,174.945 423.682,181.823L396.816,197.334L395.539,195.122L422.405,179.611C435.116,172.272 450.861,172.353 463.495,179.822L471.795,184.728C478.609,188.756 482.653,195.886 482.612,203.802C482.571,211.717 478.455,218.806 471.6,222.763L349.72,293.131C348.476,293.85 347.733,295.136 347.733,296.573C347.733,298.01 348.476,299.296 349.72,300.015C351.764,301.195 352.984,303.309 352.984,305.669C352.984,308.029 351.764,310.143 349.72,311.323L319.461,328.793C315.956,330.817 313.864,334.441 313.864,338.488C313.864,342.535 315.956,346.159 319.461,348.183L348.854,365.152L347.576,367.365Z" style="fill:rgb(136,130,120);fill-rule:nonzero;"/>
            </g>
            <g>
                <path d="M334.036,289C327.774,289 321.512,287.388 315.927,284.163L257.933,250.68C253.887,248.344 248.86,248.344 244.813,250.68L242.685,251.909L241.408,249.696L243.536,248.467C248.37,245.676 254.377,245.676 259.211,248.467L317.205,281.95C327.587,287.944 340.487,287.944 350.869,281.95L452.17,223.464C456.685,220.857 459.403,216.189 459.44,210.976C459.478,205.763 456.827,201.055 452.35,198.384L441.731,192.048C434.756,187.886 426.054,187.824 419.021,191.885L402.651,201.336L401.374,199.124L417.744,189.673C425.578,185.15 435.272,185.219 443.04,189.855L453.659,196.191C458.923,199.332 462.039,204.866 461.995,210.995C461.951,217.124 458.756,222.613 453.448,225.677L352.147,284.163C346.561,287.387 340.298,289 334.036,289Z" style="fill:rgb(136,130,120);fill-rule:nonzero;"/>
            </g>
            <g>
                <path d="M513.408,267.551L512.131,265.339L517.915,261.999C520.146,260.71 521.479,258.403 521.479,255.826C521.479,253.249 520.146,250.942 517.915,249.653L503.751,241.476C499.41,238.97 496.819,234.482 496.819,229.469C496.819,224.457 499.41,219.968 503.751,217.462C508.029,214.992 510.593,210.569 510.609,205.629C510.626,200.69 508.092,196.249 503.831,193.75L467.461,172.423C455.515,165.418 440.682,165.437 428.754,172.474L392.508,193.857L391.21,191.657L427.456,170.274C440.183,162.766 456.006,162.745 468.754,170.219L505.124,191.546C510.178,194.51 513.184,199.778 513.164,205.637C513.144,211.496 510.103,216.744 505.028,219.674C501.487,221.718 499.373,225.38 499.373,229.468C499.373,233.557 501.487,237.218 505.028,239.262L519.192,247.439C522.223,249.189 524.033,252.324 524.033,255.824C524.033,259.324 522.223,262.459 519.192,264.209L513.408,267.551Z" style="fill:rgb(136,130,120);fill-rule:nonzero;"/>
            </g>
            <g>
                <g>
                    <path d="M379.379,407.257L422.005,382.647L422.02,379.907L375.627,350.04L370.881,350.049L328.255,377.741L328.24,380.481L374.633,407.266L379.379,407.257Z" style="fill:rgb(171,160,144);fill-rule:nonzero;"/>
                    <path d="M424.475,378.219L424.496,374.296L376.659,343.596L369.865,343.608L324.249,373.026L324.228,376.949L372.064,404.567L378.859,404.555L424.475,378.219Z" style="fill:rgb(180,192,216);fill-rule:nonzero;"/>
                    <path d="M420.951,364.229L420.972,360.306L380.183,336.757L373.389,336.769L330.058,361.786L331.231,365.023L372.019,388.572L377.62,389.246L420.951,364.229Z" style="fill:rgb(187,179,165);fill-rule:nonzero;"/>
                    <path d="M378.494,383.257L416.195,361.49L416.21,358.75L376.866,336.034L372.12,336.043L334.418,357.809L334.404,360.55L373.748,383.265L378.494,383.257Z" style="fill:rgb(221,219,209);fill-rule:nonzero;"/>
                    <path d="M380.485,370.748L395.96,361.813C398.274,360.477 397.984,358.143 395.312,356.6L381.282,348.5C378.61,346.957 374.567,346.79 372.253,348.126L356.778,357.061C354.464,358.397 354.754,360.731 357.426,362.274L371.456,370.374C374.128,371.917 378.17,372.084 380.485,370.748Z" style="fill:rgb(24,24,29);fill-rule:nonzero;"/>
                    <path d="M395.312,359.133L381.282,351.033C378.61,349.49 374.567,349.323 372.253,350.659L356.778,359.594C356.258,359.894 355.871,360.245 355.611,360.626C354.832,359.352 355.197,357.974 356.778,357.062L372.253,348.127C374.567,346.791 378.61,346.959 381.282,348.501L395.312,356.601C397.384,357.797 398.023,359.469 397.127,360.782C396.765,360.191 396.159,359.622 395.312,359.133Z" style="fill:rgb(144,139,131);fill-rule:nonzero;"/>
                    <path d="M390.799,354.888L395.792,359.437L384.983,365.376L372.58,368.372L356.778,359.593L361.891,354.888L390.799,354.888Z" style="fill:rgb(24,24,29);fill-rule:nonzero;"/>
                    <path d="M379.313,364.352L390.384,357.96C392.04,357.004 391.832,355.335 389.92,354.231L379.883,348.436C377.971,347.332 375.08,347.212 373.424,348.168L362.353,354.56C360.697,355.516 360.905,357.185 362.817,358.289L372.854,364.084C374.766,365.188 377.658,365.308 379.313,364.352Z" style="fill:rgb(42,42,47);fill-rule:nonzero;"/>
                    <path d="M420.951,364.229L424.475,378.219L378.859,404.555L377.62,389.246L420.951,364.229Z" style="fill:rgb(171,160,144);fill-rule:nonzero;"/>
                    <path d="M422.005,382.647L424.475,378.219L378.859,404.555L379.379,407.257L422.005,382.647Z" style="fill:rgb(171,160,144);fill-rule:nonzero;"/>
                    <path d="M420.972,360.306L424.496,374.296L424.475,378.219L420.951,364.229L420.972,360.306Z" style="fill:rgb(171,160,144);fill-rule:nonzero;"/>
                    <path d="M331.231,365.023L372.019,388.572L372.064,404.567L324.228,376.949L331.231,365.023Z" style="fill:rgb(203,201,192);fill-rule:nonzero;"/>
                    <path d="M377.62,389.246L378.859,404.555L372.064,404.567L372.019,388.572L377.62,389.246Z" style="fill:rgb(217,214,203);fill-rule:nonzero;"/>
                    <path d="M372.064,404.567L374.633,407.266L328.24,380.481L324.228,376.949L372.064,404.567Z" style="fill:rgb(171,160,144);fill-rule:nonzero;"/>
                    <path d="M330.058,361.786L324.249,373.026L324.228,376.949L331.231,365.023L330.058,361.786Z" style="fill:rgb(226,225,232);fill-rule:nonzero;"/>
                    <path d="M334.418,357.809L330.058,361.786L331.231,365.023L334.404,360.55L334.418,357.809Z" style="fill:rgb(226,225,232);fill-rule:nonzero;"/>
                    <path d="M416.21,358.75L420.972,360.306L420.951,364.229L416.195,361.49L416.21,358.75Z" style="fill:rgb(187,179,165);fill-rule:nonzero;"/>
                    <path d="M380.183,336.757L420.972,360.306L416.21,358.75L376.866,336.034L380.183,336.757Z" style="fill:rgb(187,179,165);fill-rule:nonzero;"/>
                    <path d="M378.494,383.257L377.62,389.246L372.019,388.572L373.748,383.265L378.494,383.257Z" style="fill:rgb(226,225,232);fill-rule:nonzero;"/>
                    <g>
                        <path d="M373.322,358.11L372.259,357.496C370.89,356.706 371.064,355.313 372.644,354.401L373.683,353.801C375.263,352.889 377.676,352.789 379.045,353.579L380.108,354.193C381.477,354.983 381.303,356.376 379.723,357.289L378.684,357.889C377.103,358.801 374.69,358.901 373.322,358.11Z" style="fill:rgb(79,60,56);fill-rule:nonzero;"/>
                        <path d="M381.031,355.535L381.031,326.917L371.336,327.81L371.336,356.16L381.031,355.535Z" style="fill:rgb(79,60,56);fill-rule:nonzero;"/>
                    </g>
                    <path d="M371.341,331.041L370.278,330.427C368.909,329.637 369.083,328.244 370.663,327.331L371.702,326.731C373.282,325.819 375.695,325.719 377.064,326.509L378.127,327.123C379.495,327.913 379.322,329.306 377.742,330.219L376.703,330.819C375.122,331.731 372.709,331.831 371.341,331.041Z" style="fill:rgb(42,42,47);fill-rule:nonzero;"/>
                    <g>
                        <path d="M373.388,339.013C375.195,339.013 377.024,338.555 378.408,337.756L384.135,334.45C385.653,333.574 386.524,332.35 386.524,331.094C386.524,330.003 385.884,329.032 384.721,328.361L380.877,326.142C379.851,325.55 378.452,325.224 376.936,325.224C375.13,325.224 373.3,325.682 371.916,326.481L366.189,329.787C364.67,330.664 363.8,331.887 363.8,333.143C363.8,334.234 364.44,335.205 365.603,335.876L369.447,338.095C370.473,338.687 371.872,339.013 373.388,339.013Z" style="fill:rgb(61,61,66);fill-rule:nonzero;"/>
                        <path d="M385.717,290.672C385.717,290.672 383.294,306.141 386.524,331C387.509,338.582 363.8,333.143 363.8,333.143C367.574,312.619 364.593,292.479 364.593,292.479L385.717,290.672Z" style="fill:rgb(61,61,66);fill-rule:nonzero;"/>
                        <path d="M369.843,296.751L366,294.532C363.915,293.328 364.179,291.206 366.587,289.816L372.314,286.509C374.722,285.119 378.397,284.967 380.482,286.17L384.326,288.389C386.411,289.593 386.147,291.715 383.74,293.105L378.013,296.411C375.604,297.803 371.928,297.955 369.843,296.751Z" style="fill:rgb(84,84,88);fill-rule:nonzero;"/>
                        <path d="M367.719,287.236C366.757,287.894 364.594,290.099 364.594,292.479C364.594,294.859 376.666,295.196 376.666,295.196C376.666,295.196 385.732,291.616 385.732,290.378C385.732,289.139 384.185,287.129 382.799,286.309C381.413,285.488 367.719,287.236 367.719,287.236Z" style="fill:rgb(84,84,88);fill-rule:nonzero;"/>
                        <path d="M371.079,292.717L367.819,290.835C366.05,289.814 366.274,288.014 368.316,286.835L372.316,284.525C374.358,283.346 377.476,283.217 379.245,284.238L382.505,286.12C384.274,287.141 384.05,288.941 382.008,290.12L378.008,292.43C375.966,293.608 372.848,293.738 371.079,292.717Z" style="fill:rgb(94,94,98);fill-rule:nonzero;"/>
                    </g>
                </g>
                <g>
                    <path d="M402.827,359.929L402.825,359.928L402.828,359.919C402.835,359.872 402.85,359.826 402.872,359.781L403.681,356.75L410.976,357.004L411.798,359.96L411.797,359.96C411.875,360.205 411.77,360.452 411.47,360.625L408.314,362.447C407.792,362.748 406.88,362.711 406.277,362.362L403.319,360.654C402.961,360.448 402.794,360.178 402.827,359.929Z" style="fill:rgb(211,66,69);fill-rule:nonzero;"/>
                    <path d="M404.042,357.363L406.623,358.853C407.081,359.117 407.774,359.146 408.17,358.917L410.712,357.45C411.108,357.221 411.059,356.821 410.601,356.557L408.02,355.067C407.562,354.803 406.869,354.774 406.473,355.003L403.931,356.471C403.535,356.699 403.585,357.099 404.042,357.363Z" style="fill:rgb(255,115,115);fill-rule:nonzero;"/>
                </g>
                <path d="M373.748,383.265L372.019,388.572L331.231,365.023L334.404,360.55L373.748,383.265Z" style="fill:rgb(217,214,203);fill-rule:nonzero;"/>
            </g>
            <g>
                <g>
                    <path d="M161.839,223.307L307.666,307.5L249.465,347.025L104.961,263.595L161.839,223.307Z" style="fill:rgb(205,205,200);fill-rule:nonzero;"/>
                    <path d="M103.203,266.913L247.708,350.343L247.708,355.172L103.203,271.742L103.203,266.913Z" style="fill:rgb(194,194,187);fill-rule:nonzero;"/>
                    <path d="M103.203,266.913L247.708,350.343L249.465,347.025L104.961,263.595L103.203,266.913Z" style="fill:rgb(213,213,208);fill-rule:nonzero;"/>
                    <path d="M105.422,275.247L249.926,358.676L247.708,355.172L103.203,271.742L105.422,275.247Z" style="fill:rgb(177,177,168);fill-rule:nonzero;"/>
                    <path d="M132.521,258.76L258.149,331.292L291.372,307.788L165.743,235.257L132.521,258.76Z" style="fill:rgb(13,0,7);fill-rule:nonzero;"/>
                    <path d="M156.454,284.019L233.76,328.651L241.512,323.167L164.206,278.534L156.454,284.019Z" style="fill:rgb(13,0,7);fill-rule:nonzero;"/>
                    <g>
                        <g>
                            <path d="M159.455,240.529L159.453,240.528L159.457,240.515C159.468,240.444 159.49,240.374 159.523,240.306L160.741,235.74L171.733,236.123L172.972,240.576L172.971,240.576C173.088,240.945 172.93,241.317 172.479,241.578L167.724,244.323C166.938,244.777 165.563,244.72 164.655,244.196L160.198,241.623C159.657,241.311 159.405,240.903 159.455,240.529Z" style="fill:rgb(211,206,211);fill-rule:nonzero;"/>
                            <path d="M161.286,236.663L165.176,238.909C165.866,239.307 166.909,239.351 167.507,239.006L171.337,236.795C171.935,236.45 171.86,235.848 171.17,235.449L167.28,233.203C166.59,232.805 165.547,232.762 164.949,233.106L161.119,235.317C160.521,235.662 160.596,236.265 161.286,236.663Z" style="fill:rgb(239,241,254);fill-rule:nonzero;"/>
                        </g>
                        <g>
                            <path d="M167.805,245.35L167.803,245.349L167.807,245.336C167.818,245.265 167.84,245.195 167.873,245.127L169.091,240.561L180.083,240.944L181.322,245.397L181.321,245.397C181.438,245.766 181.28,246.138 180.829,246.399L176.074,249.144C175.288,249.598 173.913,249.541 173.005,249.017L168.548,246.444C168.007,246.132 167.756,245.725 167.805,245.35Z" style="fill:rgb(211,206,211);fill-rule:nonzero;"/>
                            <path d="M169.637,241.484L173.527,243.73C174.217,244.128 175.261,244.172 175.858,243.827L179.688,241.616C180.286,241.271 180.21,240.669 179.521,240.27L175.632,238.024C174.942,237.626 173.898,237.582 173.301,237.927L169.471,240.138C168.872,240.484 168.947,241.086 169.637,241.484Z" style="fill:rgb(239,241,254);fill-rule:nonzero;"/>
                        </g>
                        <g>
                            <path d="M176.156,250.171L176.154,250.17L176.158,250.157C176.169,250.086 176.191,250.016 176.224,249.949L177.442,245.383L188.434,245.766L189.673,250.219L189.672,250.219C189.789,250.588 189.631,250.96 189.18,251.221L184.425,253.966C183.638,254.42 182.264,254.363 181.356,253.839L176.899,251.266C176.358,250.953 176.107,250.546 176.156,250.171Z" style="fill:rgb(211,206,211);fill-rule:nonzero;"/>
                            <path d="M177.988,246.306L181.877,248.552C182.567,248.95 183.611,248.993 184.208,248.649L188.038,246.438C188.635,246.093 188.561,245.491 187.871,245.092L183.981,242.846C183.291,242.448 182.247,242.404 181.65,242.749L177.82,244.96C177.223,245.305 177.298,245.907 177.988,246.306Z" style="fill:rgb(239,241,254);fill-rule:nonzero;"/>
                        </g>
                        <g>
                            <path d="M184.507,254.993L184.505,254.992L184.509,254.979C184.52,254.908 184.542,254.838 184.575,254.77L185.793,250.204L196.785,250.587L198.024,255.04L198.023,255.04C198.14,255.409 197.982,255.781 197.531,256.042L192.776,258.787C191.989,259.241 190.615,259.184 189.707,258.66L185.25,256.087C184.709,255.775 184.457,255.367 184.507,254.993Z" style="fill:rgb(211,206,211);fill-rule:nonzero;"/>
                            <path d="M186.338,251.127L190.228,253.373C190.918,253.771 191.962,253.815 192.559,253.47L196.389,251.259C196.987,250.914 196.912,250.311 196.222,249.913L192.332,247.667C191.642,247.269 190.599,247.226 190.001,247.57L186.171,249.781C185.573,250.126 185.648,250.729 186.338,251.127Z" style="fill:rgb(239,241,254);fill-rule:nonzero;"/>
                        </g>
                        <g>
                            <path d="M192.857,259.814L192.855,259.813L192.859,259.8C192.87,259.729 192.892,259.659 192.925,259.591L194.143,255.025L205.135,255.408L206.374,259.861L206.373,259.862C206.49,260.231 206.332,260.603 205.881,260.864L201.126,263.609C200.34,264.063 198.966,264.006 198.057,263.482L193.6,260.909C193.059,260.596 192.808,260.189 192.857,259.814Z" style="fill:rgb(211,206,211);fill-rule:nonzero;"/>
                            <path d="M194.689,255.948L198.578,258.194C199.268,258.592 200.312,258.636 200.909,258.291L204.739,256.08C205.336,255.735 205.262,255.132 204.572,254.734L200.682,252.488C199.992,252.09 198.948,252.046 198.351,252.391L194.521,254.602C193.924,254.947 193.999,255.55 194.689,255.948Z" style="fill:rgb(239,241,254);fill-rule:nonzero;"/>
                        </g>
                        <g>
                            <path d="M201.208,264.635L201.206,264.634L201.21,264.621C201.221,264.55 201.243,264.48 201.276,264.413L202.494,259.847L213.486,260.23L214.725,264.683L214.724,264.683C214.841,265.052 214.683,265.424 214.232,265.685L209.477,268.43C208.691,268.884 207.316,268.827 206.408,268.303L201.951,265.73C201.41,265.417 201.159,265.01 201.208,264.635Z" style="fill:rgb(211,206,211);fill-rule:nonzero;"/>
                            <path d="M203.04,260.769L206.929,263.015C207.619,263.413 208.663,263.456 209.26,263.112L213.09,260.901C213.688,260.556 213.613,259.953 212.923,259.555L209.034,257.309C208.344,256.911 207.3,256.867 206.703,257.212L202.873,259.423C202.275,259.769 202.35,260.371 203.04,260.769Z" style="fill:rgb(239,241,254);fill-rule:nonzero;"/>
                        </g>
                        <g>
                            <path d="M209.559,269.456L209.557,269.455L209.561,269.442C209.572,269.371 209.594,269.301 209.627,269.233L210.845,264.667L221.837,265.05L223.076,269.503L223.075,269.503C223.192,269.872 223.034,270.244 222.583,270.505L217.828,273.25C217.042,273.704 215.667,273.647 214.759,273.123L210.302,270.55C209.761,270.238 209.509,269.831 209.559,269.456Z" style="fill:rgb(211,206,211);fill-rule:nonzero;"/>
                            <path d="M211.39,265.591L215.28,267.837C215.97,268.235 217.014,268.279 217.611,267.934L221.441,265.723C222.038,265.378 221.963,264.776 221.274,264.377L217.385,262.131C216.695,261.733 215.651,261.69 215.054,262.034L211.224,264.245C210.625,264.59 210.7,265.192 211.39,265.591Z" style="fill:rgb(239,241,254);fill-rule:nonzero;"/>
                        </g>
                        <g>
                            <path d="M217.909,274.278L217.907,274.277L217.911,274.264C217.922,274.193 217.944,274.123 217.977,274.055L219.195,269.489L230.187,269.872L231.426,274.325L231.425,274.325C231.542,274.694 231.384,275.066 230.933,275.327L226.178,278.072C225.391,278.526 224.017,278.469 223.109,277.945L218.652,275.372C218.111,275.06 217.86,274.652 217.909,274.278Z" style="fill:rgb(211,206,211);fill-rule:nonzero;"/>
                            <path d="M219.741,270.412L223.63,272.658C224.32,273.056 225.364,273.1 225.961,272.755L229.791,270.544C230.388,270.199 230.314,269.596 229.624,269.198L225.735,266.952C225.045,266.554 224.001,266.51 223.404,266.855L219.574,269.066C218.976,269.411 219.051,270.014 219.741,270.412Z" style="fill:rgb(239,241,254);fill-rule:nonzero;"/>
                        </g>
                        <g>
                            <path d="M226.26,279.099L226.258,279.098L226.262,279.085C226.273,279.014 226.295,278.944 226.328,278.877L227.546,274.311L238.538,274.694L239.777,279.147L239.776,279.147C239.893,279.516 239.735,279.888 239.284,280.149L234.529,282.894C233.742,283.348 232.368,283.291 231.46,282.767L227.003,280.194C226.462,279.881 226.211,279.474 226.26,279.099Z" style="fill:rgb(211,206,211);fill-rule:nonzero;"/>
                            <path d="M228.092,275.233L231.981,277.479C232.671,277.877 233.715,277.92 234.312,277.576L238.142,275.365C238.74,275.02 238.665,274.417 237.975,274.019L234.085,271.773C233.395,271.375 232.351,271.331 231.754,271.676L227.924,273.887C227.327,274.232 227.402,274.835 228.092,275.233Z" style="fill:rgb(239,241,254);fill-rule:nonzero;"/>
                        </g>
                        <g>
                            <path d="M234.611,283.92L234.609,283.919L234.613,283.906C234.624,283.835 234.646,283.765 234.679,283.697L235.897,279.131L246.889,279.514L248.128,283.967L248.127,283.967C248.244,284.336 248.086,284.708 247.635,284.969L242.88,287.714C242.094,288.168 240.72,288.111 239.811,287.587L235.354,285.014C234.813,284.702 234.561,284.295 234.611,283.92Z" style="fill:rgb(211,206,211);fill-rule:nonzero;"/>
                            <path d="M236.442,280.055L240.331,282.301C241.021,282.699 242.065,282.743 242.662,282.398L246.492,280.187C247.09,279.842 247.015,279.239 246.325,278.841L242.435,276.595C241.745,276.197 240.702,276.154 240.104,276.498L236.274,278.709C235.677,279.054 235.752,279.656 236.442,280.055Z" style="fill:rgb(239,241,254);fill-rule:nonzero;"/>
                        </g>
                        <g>
                            <path d="M242.962,288.741L242.96,288.74L242.964,288.727C242.975,288.656 242.997,288.586 243.03,288.518L244.248,283.952L255.24,284.335L256.479,288.788L256.478,288.788C256.595,289.157 256.437,289.529 255.986,289.79L251.231,292.535C250.445,292.989 249.07,292.932 248.162,292.408L243.705,289.835C243.163,289.523 242.912,289.116 242.962,288.741Z" style="fill:rgb(211,206,211);fill-rule:nonzero;"/>
                            <path d="M244.793,284.876L248.682,287.122C249.372,287.52 250.416,287.564 251.013,287.219L254.843,285.008C255.441,284.663 255.366,284.061 254.676,283.662L250.787,281.416C250.097,281.018 249.053,280.974 248.456,281.319L244.626,283.53C244.028,283.875 244.103,284.478 244.793,284.876Z" style="fill:rgb(239,241,254);fill-rule:nonzero;"/>
                        </g>
                        <g>
                            <path d="M251.312,293.563L251.31,293.562L251.314,293.549C251.325,293.478 251.347,293.408 251.38,293.341L252.598,288.775L263.59,289.158L264.829,293.611L264.828,293.611C264.945,293.98 264.787,294.352 264.336,294.613L259.581,297.358C258.795,297.812 257.42,297.755 256.512,297.231L252.055,294.658C251.514,294.345 251.263,293.937 251.312,293.563Z" style="fill:rgb(211,206,211);fill-rule:nonzero;"/>
                            <path d="M253.144,289.697L257.034,291.943C257.724,292.341 258.767,292.384 259.365,292.04L263.195,289.829C263.793,289.484 263.717,288.882 263.028,288.483L259.139,286.237C258.449,285.839 257.405,285.795 256.808,286.14L252.978,288.351C252.379,288.696 252.454,289.299 253.144,289.697Z" style="fill:rgb(239,241,254);fill-rule:nonzero;"/>
                        </g>
                        <g>
                            <path d="M259.663,298.384L259.661,298.383L259.665,298.37C259.676,298.299 259.698,298.229 259.731,298.161L260.949,293.595L271.941,293.978L273.18,298.431L273.179,298.431C273.296,298.8 273.138,299.172 272.687,299.433L267.932,302.178C267.145,302.632 265.771,302.575 264.863,302.051L260.406,299.478C259.865,299.166 259.613,298.759 259.663,298.384Z" style="fill:rgb(211,206,211);fill-rule:nonzero;"/>
                            <path d="M261.494,294.518L265.383,296.764C266.073,297.162 267.117,297.206 267.714,296.861L271.544,294.65C272.141,294.305 272.067,293.702 271.377,293.304L267.488,291.058C266.798,290.66 265.754,290.616 265.157,290.961L261.327,293.172C260.729,293.517 260.804,294.12 261.494,294.518Z" style="fill:rgb(239,241,254);fill-rule:nonzero;"/>
                        </g>
                        <g>
                            <path d="M268.013,303.205L268.011,303.204L268.015,303.191C268.026,303.12 268.048,303.05 268.081,302.982L269.299,298.416L280.291,298.799L281.53,303.252L281.529,303.252C281.646,303.621 281.488,303.993 281.037,304.254L276.282,307C275.495,307.454 274.121,307.397 273.213,306.873L268.756,304.3C268.215,303.987 267.964,303.58 268.013,303.205Z" style="fill:rgb(211,206,211);fill-rule:nonzero;"/>
                            <path d="M269.845,299.34L273.734,301.586C274.424,301.984 275.468,302.028 276.065,301.683L279.895,299.472C280.493,299.127 280.418,298.524 279.728,298.126L275.838,295.88C275.148,295.482 274.105,295.438 273.507,295.783L269.677,297.994C269.08,298.339 269.155,298.941 269.845,299.34Z" style="fill:rgb(239,241,254);fill-rule:nonzero;"/>
                        </g>
                        <g>
                            <path d="M276.364,308.026L276.362,308.025L276.366,308.012C276.377,307.941 276.399,307.871 276.432,307.804L277.65,303.238L288.642,303.621L289.881,308.074L289.88,308.074C289.997,308.443 289.839,308.815 289.388,309.076L284.633,311.821C283.847,312.275 282.473,312.218 281.564,311.694L277.107,309.121C276.566,308.809 276.315,308.401 276.364,308.026Z" style="fill:rgb(211,206,211);fill-rule:nonzero;"/>
                            <path d="M278.196,304.161L282.085,306.407C282.775,306.805 283.819,306.849 284.416,306.504L288.246,304.293C288.844,303.948 288.769,303.346 288.079,302.947L284.189,300.701C283.499,300.303 282.456,300.259 281.858,300.604L278.028,302.815C277.431,303.16 277.506,303.763 278.196,304.161Z" style="fill:rgb(239,241,254);fill-rule:nonzero;"/>
                        </g>
                        <g>
                            <path d="M150.945,246.275L152.383,242.479L155.872,243.199L156.181,243.021C156.968,242.567 158.342,242.624 159.25,243.148L161.267,244.313L168.493,245.805L169.913,249.628L169.911,249.629C170.055,250.012 169.903,250.403 169.434,250.674L164.679,253.419C163.893,253.873 162.519,253.816 161.61,253.292L151.646,247.539C151.023,247.178 150.781,246.691 150.945,246.275Z" style="fill:rgb(211,206,211);fill-rule:nonzero;"/>
                            <path d="M152.929,242.69L161.938,247.892C162.628,249.005 163.672,249.048 164.269,248.703L168.099,246.492C168.697,246.147 168.622,245.545 167.932,245.146L158.922,239.944C158.232,239.546 157.189,239.502 156.591,239.847L152.761,242.058C152.164,242.404 152.239,243.006 152.929,242.69Z" style="fill:rgb(239,241,254);fill-rule:nonzero;"/>
                        </g>
                        <g>
                            <path d="M165.021,254.595L165.019,254.594L165.023,254.581C165.034,254.51 165.056,254.44 165.089,254.372L166.307,250.52L177.299,250.903L178.538,254.642L178.537,254.642C178.654,255.011 178.496,255.383 178.045,255.644L173.29,258.389C172.503,258.843 171.129,258.786 170.221,258.262L165.764,255.689C165.223,255.377 164.972,254.969 165.021,254.595Z" style="fill:rgb(211,206,211);fill-rule:nonzero;"/>
                            <path d="M166.853,250.729L170.742,252.975C171.432,253.373 172.476,253.416 173.073,253.072L176.903,250.861C177.5,250.516 177.426,249.914 176.736,249.515L172.847,247.269C172.157,246.871 171.113,246.827 170.516,247.172L166.686,249.383C166.088,249.728 166.163,250.331 166.853,250.729Z" style="fill:rgb(239,241,254);fill-rule:nonzero;"/>
                        </g>
                        <g>
                            <path d="M173.372,259.416L173.37,259.415L173.374,259.402C173.385,259.331 173.407,259.261 173.44,259.194L174.658,254.628L185.65,255.011L186.889,259.464L186.888,259.464C187.005,259.833 186.847,260.205 186.396,260.466L181.641,263.211C180.855,263.665 179.48,263.608 178.572,263.084L174.115,260.511C173.574,260.198 173.323,259.79 173.372,259.416Z" style="fill:rgb(211,206,211);fill-rule:nonzero;"/>
                            <path d="M175.204,255.55L179.093,257.796C179.783,258.194 180.827,258.238 181.424,257.893L185.254,255.682C185.852,255.337 185.777,254.735 185.087,254.336L181.197,252.09C180.507,251.692 179.463,251.648 178.866,251.993L175.036,254.204C174.439,254.549 174.514,255.152 175.204,255.55Z" style="fill:rgb(239,241,254);fill-rule:nonzero;"/>
                        </g>
                        <g>
                            <path d="M181.723,264.237L181.721,264.236L181.725,264.223C181.736,264.152 181.758,264.082 181.791,264.014L183.009,259.448L194.001,259.831L195.24,264.284L195.239,264.284C195.356,264.653 195.198,265.025 194.747,265.286L189.992,268.031C189.206,268.485 187.831,268.428 186.923,267.904L182.466,265.331C181.925,265.019 181.673,264.612 181.723,264.237Z" style="fill:rgb(211,206,211);fill-rule:nonzero;"/>
                            <path d="M183.554,260.371L187.444,262.617C188.134,263.015 189.178,263.059 189.775,262.714L193.605,260.503C194.202,260.158 194.127,259.556 193.438,259.157L189.549,256.911C188.859,256.513 187.815,256.469 187.218,256.814L183.388,259.025C182.789,259.371 182.864,259.973 183.554,260.371Z" style="fill:rgb(239,241,254);fill-rule:nonzero;"/>
                        </g>
                        <g>
                            <path d="M190.073,269.058L190.071,269.057L190.075,269.044C190.086,268.973 190.108,268.903 190.141,268.835L191.359,264.269L202.351,264.652L203.59,269.105L203.589,269.105C203.706,269.474 203.548,269.846 203.097,270.107L198.342,272.852C197.555,273.306 196.181,273.249 195.273,272.725L190.816,270.152C190.275,269.84 190.024,269.433 190.073,269.058Z" style="fill:rgb(211,206,211);fill-rule:nonzero;"/>
                            <path d="M191.905,265.193L195.794,267.439C196.484,267.837 197.528,267.881 198.125,267.536L201.955,265.325C202.553,264.98 202.478,264.377 201.788,263.979L197.899,261.733C197.209,261.335 196.165,261.292 195.568,261.636L191.738,263.847C191.14,264.192 191.215,264.794 191.905,265.193Z" style="fill:rgb(239,241,254);fill-rule:nonzero;"/>
                        </g>
                        <g>
                            <path d="M198.424,273.88L198.422,273.879L198.426,273.866C198.437,273.795 198.459,273.725 198.492,273.657L199.71,269.091L210.702,269.474L211.941,273.927L211.94,273.927C212.057,274.296 211.899,274.668 211.448,274.929L206.693,277.674C205.907,278.128 204.532,278.071 203.624,277.547L199.167,274.974C198.626,274.662 198.375,274.254 198.424,273.88Z" style="fill:rgb(211,206,211);fill-rule:nonzero;"/>
                            <path d="M200.256,270.014L204.145,272.26C204.835,272.658 205.879,272.701 206.476,272.357L210.306,270.146C210.904,269.801 210.829,269.198 210.139,268.8L206.25,266.554C205.56,266.156 204.516,266.112 203.919,266.457L200.089,268.668C199.491,269.013 199.566,269.616 200.256,270.014Z" style="fill:rgb(239,241,254);fill-rule:nonzero;"/>
                        </g>
                        <g>
                            <path d="M206.775,278.701L206.773,278.7L206.777,278.687C206.788,278.616 206.81,278.546 206.843,278.479L208.061,273.913L219.053,274.296L220.292,278.749L220.291,278.75C220.408,279.119 220.25,279.491 219.799,279.752L215.044,282.497C214.258,282.951 212.883,282.894 211.975,282.37L207.518,279.797C206.977,279.483 206.725,279.075 206.775,278.701Z" style="fill:rgb(211,206,211);fill-rule:nonzero;"/>
                            <path d="M208.606,274.835L212.496,277.081C213.186,277.479 214.229,277.523 214.827,277.178L218.657,274.967C219.255,274.622 219.18,274.019 218.49,273.621L214.6,271.375C213.91,270.977 212.866,270.933 212.269,271.278L208.439,273.489C207.841,273.834 207.916,274.437 208.606,274.835Z" style="fill:rgb(239,241,254);fill-rule:nonzero;"/>
                        </g>
                        <g>
                            <path d="M215.125,283.522L215.123,283.521L215.127,283.508C215.138,283.437 215.16,283.367 215.193,283.299L216.411,278.733L227.403,279.116L228.642,283.569L228.641,283.57C228.758,283.939 228.6,284.311 228.149,284.572L223.394,287.317C222.607,287.771 221.233,287.714 220.325,287.19L215.868,284.617C215.327,284.304 215.076,283.897 215.125,283.522Z" style="fill:rgb(211,206,211);fill-rule:nonzero;"/>
                            <path d="M216.957,279.656L220.847,281.902C221.537,282.3 222.581,282.344 223.178,281.999L227.008,279.788C227.606,279.443 227.531,278.84 226.841,278.442L222.951,276.196C222.261,275.798 221.218,275.754 220.62,276.099L216.79,278.31C216.192,278.655 216.267,279.258 216.957,279.656Z" style="fill:rgb(239,241,254);fill-rule:nonzero;"/>
                        </g>
                        <g>
                            <path d="M223.476,288.343L223.474,288.342L223.478,288.329C223.489,288.258 223.511,288.188 223.544,288.12L224.762,283.554L235.754,283.937L236.993,288.39L236.992,288.39C237.109,288.759 236.951,289.131 236.5,289.392L231.745,292.137C230.959,292.591 229.585,292.534 228.676,292.01L224.219,289.437C223.678,289.125 223.427,288.718 223.476,288.343Z" style="fill:rgb(211,206,211);fill-rule:nonzero;"/>
                            <path d="M225.308,284.478L229.197,286.724C229.887,287.122 230.931,287.166 231.528,286.821L235.358,284.61C235.956,284.265 235.881,283.662 235.191,283.264L231.302,281.018C230.612,280.62 229.568,280.577 228.971,280.921L225.141,283.132C224.543,283.477 224.618,284.079 225.308,284.478Z" style="fill:rgb(239,241,254);fill-rule:nonzero;"/>
                        </g>
                        <g>
                            <path d="M231.827,293.164L231.825,293.163L231.829,293.15C231.84,293.079 231.862,293.009 231.895,292.941L233.113,288.375L244.105,288.758L245.344,293.211L245.343,293.211C245.46,293.58 245.302,293.952 244.851,294.213L240.096,296.958C239.31,297.412 237.935,297.355 237.027,296.831L232.57,294.258C232.029,293.947 231.777,293.539 231.827,293.164Z" style="fill:rgb(211,206,211);fill-rule:nonzero;"/>
                            <path d="M233.658,289.299L237.548,291.545C238.238,291.943 239.281,291.987 239.879,291.642L243.709,289.431C244.307,289.086 244.232,288.484 243.542,288.085L239.652,285.839C238.962,285.441 237.918,285.397 237.321,285.742L233.491,287.953C232.893,288.298 232.968,288.901 233.658,289.299Z" style="fill:rgb(239,241,254);fill-rule:nonzero;"/>
                        </g>
                        <g>
                            <path d="M240.177,297.986L240.175,297.985L240.179,297.972C240.19,297.901 240.212,297.831 240.245,297.764L241.463,293.198L252.455,293.581L253.694,298.034L253.693,298.034C253.81,298.403 253.652,298.775 253.201,299.036L248.446,301.781C247.659,302.235 246.285,302.178 245.377,301.654L240.92,299.081C240.379,298.768 240.128,298.36 240.177,297.986Z" style="fill:rgb(211,206,211);fill-rule:nonzero;"/>
                            <path d="M242.009,294.12L245.899,296.366C246.589,296.764 247.633,296.808 248.23,296.463L252.06,294.252C252.658,293.907 252.583,293.305 251.893,292.906L248.003,290.66C247.313,290.262 246.27,290.218 245.672,290.563L241.842,292.774C241.244,293.119 241.319,293.722 242.009,294.12Z" style="fill:rgb(239,241,254);fill-rule:nonzero;"/>
                        </g>
                        <g>
                            <path d="M248.528,302.807L248.526,302.806L248.53,302.793C248.541,302.722 248.563,302.652 248.596,302.584L249.814,298.018L260.806,298.401L262.045,302.854L262.044,302.854C262.161,303.223 262.003,303.595 261.552,303.856L256.797,306.601C256.011,307.055 254.637,306.998 253.728,306.474L249.271,303.901C248.73,303.589 248.479,303.182 248.528,302.807Z" style="fill:rgb(211,206,211);fill-rule:nonzero;"/>
                            <path d="M250.36,298.941L254.249,301.187C254.939,301.585 255.983,301.629 256.58,301.284L260.41,299.073C261.008,298.728 260.933,298.125 260.243,297.727L256.354,295.481C255.664,295.083 254.62,295.039 254.023,295.384L250.193,297.595C249.595,297.94 249.67,298.543 250.36,298.941Z" style="fill:rgb(239,241,254);fill-rule:nonzero;"/>
                        </g>
                        <g>
                            <path d="M256.879,307.628L256.877,307.627L256.881,307.614C256.892,307.543 256.914,307.473 256.947,307.405L258.165,302.839L269.157,303.222L270.396,307.675L270.395,307.676C270.512,308.045 270.354,308.417 269.903,308.678L265.148,311.423C264.361,311.877 262.987,311.82 262.079,311.296L257.622,308.723C257.081,308.41 256.829,308.003 256.879,307.628Z" style="fill:rgb(211,206,211);fill-rule:nonzero;"/>
                            <path d="M258.71,303.763L262.6,306.009C263.29,306.407 264.334,306.451 264.931,306.106L268.761,303.895C269.358,303.55 269.283,302.947 268.594,302.549L264.705,300.303C264.015,299.905 262.971,299.862 262.374,300.206L258.544,302.417C257.945,302.762 258.02,303.364 258.71,303.763Z" style="fill:rgb(239,241,254);fill-rule:nonzero;"/>
                        </g>
                        <g>
                            <path d="M265.646,312.499L267.088,307.978L271.117,308.418C271.921,308.806 273.127,308.895 273.952,309.371L274.102,308.743L279.888,309.374L281.221,313.76C281.303,313.889 281.35,314.02 281.363,314.151L281.365,314.156L281.364,314.156C281.392,314.468 281.221,314.769 280.838,314.991L276.083,317.736C275.296,318.19 273.922,318.133 273.014,317.609L266.349,313.761C265.725,313.401 265.483,312.915 265.646,312.499Z" style="fill:rgb(211,206,211);fill-rule:nonzero;"/>
                            <path d="M267.63,308.913L273.341,312.21C274.031,312.608 275.074,312.652 275.672,312.307L279.502,310.096C280.099,309.751 280.024,309.148 279.335,308.75L273.624,305.453C272.934,305.055 271.891,305.011 271.293,305.356L267.463,307.567C266.865,307.912 266.94,308.514 267.63,308.913Z" style="fill:rgb(239,241,254);fill-rule:nonzero;"/>
                        </g>
                        <g>
                            <path d="M142.669,252.196L142.667,252.195L142.681,252.158C142.684,252.149 142.687,252.141 142.691,252.132L144.08,247.67L147.338,248.511L147.922,248.889C148.709,248.435 150.083,248.492 150.991,249.016L154.603,250.387L163.128,252.588L164.51,257.173L164.508,257.173C164.63,257.544 164.473,257.92 164.018,258.182L159.263,260.927C158.476,261.381 157.103,261.324 156.194,260.8L143.387,253.406C142.788,253.061 142.544,252.6 142.669,252.196Z" style="fill:rgb(211,206,211);fill-rule:nonzero;"/>
                            <path d="M144.494,248.458L156.695,255.503C157.289,255.846 158.254,255.844 158.852,255.499L162.682,253.288C163.28,252.943 163.282,252.386 162.689,252.043L150.488,244.999C149.894,244.656 148.929,244.658 148.331,245.003L144.501,247.214C143.903,247.557 143.9,248.115 144.494,248.458Z" style="fill:rgb(239,241,254);fill-rule:nonzero;"/>
                        </g>
                        <g>
                            <path d="M159.344,261.955L159.342,261.954L159.346,261.941C159.357,261.87 159.379,261.8 159.412,261.732L160.63,257.166L171.622,257.549L172.861,262.002L172.86,262.002C172.977,262.371 172.819,262.743 172.368,263.004L167.613,265.749C166.826,266.203 165.452,266.146 164.544,265.622L160.087,263.049C159.546,262.737 159.295,262.329 159.344,261.955Z" style="fill:rgb(211,206,211);fill-rule:nonzero;"/>
                            <path d="M161.176,258.089L165.065,260.335C165.755,260.733 166.799,260.777 167.396,260.432L171.226,258.221C171.823,257.876 171.749,257.273 171.059,256.875L167.169,254.629C166.479,254.231 165.435,254.187 164.838,254.532L161.008,256.743C160.411,257.088 160.486,257.691 161.176,258.089Z" style="fill:rgb(239,241,254);fill-rule:nonzero;"/>
                        </g>
                        <g>
                            <path d="M167.695,266.776L167.693,266.775L167.697,266.762C167.708,266.691 167.73,266.621 167.763,266.554L168.981,261.988L179.973,262.371L181.212,266.824L181.211,266.824C181.328,267.193 181.17,267.565 180.719,267.826L175.964,270.571C175.178,271.025 173.803,270.968 172.895,270.444L168.438,267.871C167.897,267.558 167.646,267.151 167.695,266.776Z" style="fill:rgb(211,206,211);fill-rule:nonzero;"/>
                            <path d="M169.527,262.91L173.417,265.156C174.107,265.554 175.151,265.598 175.748,265.253L179.578,263.042C180.176,262.697 180.101,262.094 179.411,261.696L175.522,259.45C174.832,259.052 173.789,259.008 173.191,259.353L169.361,261.564C168.762,261.909 168.837,262.512 169.527,262.91Z" style="fill:rgb(239,241,254);fill-rule:nonzero;"/>
                        </g>
                        <g>
                            <path d="M176.046,271.597L176.044,271.596L176.048,271.583C176.059,271.512 176.081,271.442 176.114,271.374L177.332,266.808L188.324,267.191L189.563,271.644L189.562,271.644C189.679,272.013 189.521,272.385 189.07,272.646L184.315,275.391C183.529,275.845 182.154,275.788 181.246,275.264L176.789,272.691C176.248,272.379 175.996,271.972 176.046,271.597Z" style="fill:rgb(211,206,211);fill-rule:nonzero;"/>
                            <path d="M177.877,267.732L181.767,269.978C182.457,270.376 183.501,270.42 184.098,270.075L187.928,267.864C188.525,267.519 188.45,266.916 187.761,266.518L183.872,264.272C183.182,263.874 182.138,263.83 181.541,264.175L177.711,266.386C177.112,266.731 177.187,267.333 177.877,267.732Z" style="fill:rgb(239,241,254);fill-rule:nonzero;"/>
                        </g>
                        <g>
                            <path d="M184.396,276.418L184.394,276.417L184.398,276.404C184.409,276.333 184.431,276.263 184.464,276.195L185.682,271.629L196.674,272.012L197.913,276.465L197.912,276.465C198.029,276.834 197.871,277.206 197.42,277.467L192.665,280.212C191.879,280.666 190.504,280.609 189.596,280.085L185.139,277.512C184.598,277.201 184.347,276.793 184.396,276.418Z" style="fill:rgb(211,206,211);fill-rule:nonzero;"/>
                            <path d="M186.228,272.553L190.118,274.799C190.808,275.197 191.852,275.241 192.449,274.896L196.279,272.685C196.877,272.34 196.802,271.738 196.112,271.339L192.223,269.093C191.533,268.695 190.489,268.651 189.892,268.996L186.062,271.207C185.463,271.552 185.538,272.155 186.228,272.553Z" style="fill:rgb(239,241,254);fill-rule:nonzero;"/>
                        </g>
                        <g>
                            <path d="M192.747,281.24L192.745,281.239L192.749,281.226C192.76,281.155 192.782,281.085 192.815,281.018L194.033,276.452L205.025,276.835L206.264,281.288L206.263,281.288C206.38,281.657 206.222,282.029 205.771,282.29L201.016,285.035C200.229,285.489 198.855,285.432 197.947,284.908L193.49,282.335C192.949,282.022 192.698,281.614 192.747,281.24Z" style="fill:rgb(211,206,211);fill-rule:nonzero;"/>
                            <path d="M194.579,277.374L198.468,279.62C199.158,280.018 200.202,280.062 200.799,279.717L204.629,277.506C205.227,277.161 205.152,276.559 204.462,276.16L200.573,273.914C199.883,273.516 198.839,273.472 198.242,273.817L194.412,276.028C193.814,276.373 193.889,276.976 194.579,277.374Z" style="fill:rgb(239,241,254);fill-rule:nonzero;"/>
                        </g>
                        <g>
                            <path d="M201.098,286.061L201.096,286.06L201.1,286.047C201.111,285.976 201.133,285.906 201.166,285.838L202.384,281.272L213.376,281.655L214.615,286.108L214.614,286.108C214.731,286.477 214.573,286.849 214.122,287.11L209.367,289.855C208.58,290.309 207.206,290.252 206.298,289.728L201.841,287.155C201.3,286.843 201.048,286.436 201.098,286.061Z" style="fill:rgb(211,206,211);fill-rule:nonzero;"/>
                            <path d="M202.929,282.195L206.818,284.441C207.508,284.839 208.552,284.883 209.149,284.538L212.979,282.327C213.576,281.982 213.502,281.379 212.812,280.981L208.922,278.735C208.232,278.337 207.188,278.293 206.591,278.638L202.761,280.849C202.164,281.194 202.239,281.797 202.929,282.195Z" style="fill:rgb(239,241,254);fill-rule:nonzero;"/>
                        </g>
                        <g>
                            <path d="M209.449,290.882L209.447,290.881L209.451,290.868C209.462,290.797 209.484,290.727 209.517,290.659L210.735,286.093L221.727,286.476L222.966,290.929L222.965,290.93C223.082,291.299 222.924,291.671 222.473,291.932L217.718,294.677C216.932,295.131 215.557,295.074 214.649,294.55L210.192,291.977C209.65,291.664 209.399,291.257 209.449,290.882Z" style="fill:rgb(211,206,211);fill-rule:nonzero;"/>
                            <path d="M211.28,287.017L215.169,289.263C215.859,289.661 216.903,289.705 217.5,289.36L221.33,287.149C221.928,286.804 221.853,286.201 221.163,285.803L217.274,283.557C216.584,283.159 215.54,283.115 214.943,283.46L211.113,285.671C210.515,286.016 210.59,286.618 211.28,287.017Z" style="fill:rgb(239,241,254);fill-rule:nonzero;"/>
                        </g>
                        <g>
                            <path d="M217.799,295.703L217.797,295.702L217.801,295.689C217.812,295.618 217.834,295.548 217.867,295.481L219.085,290.915L230.077,291.298L231.316,295.751L231.315,295.751C231.432,296.12 231.274,296.492 230.823,296.753L226.068,299.498C225.282,299.952 223.907,299.895 222.999,299.371L218.542,296.798C218.001,296.486 217.75,296.078 217.799,295.703Z" style="fill:rgb(211,206,211);fill-rule:nonzero;"/>
                            <path d="M219.631,291.838L223.521,294.084C224.211,294.482 225.254,294.526 225.852,294.181L229.682,291.97C230.28,291.625 230.205,291.023 229.515,290.624L225.625,288.378C224.935,287.98 223.891,287.936 223.294,288.281L219.464,290.492C218.866,290.837 218.941,291.44 219.631,291.838Z" style="fill:rgb(239,241,254);fill-rule:nonzero;"/>
                        </g>
                        <g>
                            <path d="M226.15,300.525L226.148,300.524L226.152,300.511C226.163,300.44 226.185,300.37 226.218,300.302L227.436,295.736L238.428,296.119L239.667,300.572L239.666,300.572C239.783,300.941 239.625,301.313 239.174,301.574L234.419,304.319C233.632,304.773 232.258,304.716 231.35,304.192L226.893,301.619C226.352,301.307 226.1,300.899 226.15,300.525Z" style="fill:rgb(211,206,211);fill-rule:nonzero;"/>
                            <path d="M227.981,296.659L231.871,298.905C232.561,299.303 233.605,299.347 234.202,299.002L238.032,296.791C238.629,296.446 238.554,295.843 237.865,295.445L233.976,293.199C233.286,292.801 232.242,292.757 231.645,293.102L227.815,295.313C227.217,295.658 227.291,296.261 227.981,296.659Z" style="fill:rgb(239,241,254);fill-rule:nonzero;"/>
                        </g>
                        <g>
                            <path d="M234.501,305.346L234.499,305.345L234.503,305.332C234.514,305.261 234.536,305.191 234.569,305.123L235.787,300.557L246.779,300.94L248.018,305.393L248.017,305.394C248.134,305.763 247.976,306.135 247.525,306.396L242.77,309.141C241.983,309.595 240.609,309.538 239.701,309.014L235.244,306.441C234.702,306.128 234.451,305.721 234.501,305.346Z" style="fill:rgb(211,206,211);fill-rule:nonzero;"/>
                            <path d="M236.332,301.48L240.221,303.726C240.911,304.124 241.955,304.168 242.552,303.823L246.382,301.612C246.98,301.267 246.905,300.664 246.215,300.266L242.325,298.02C241.635,297.622 240.591,297.578 239.994,297.923L236.164,300.134C235.567,300.479 235.642,301.082 236.332,301.48Z" style="fill:rgb(239,241,254);fill-rule:nonzero;"/>
                        </g>
                        <g>
                            <path d="M242.851,310.167L242.849,310.166L242.853,310.153C242.864,310.082 242.886,310.012 242.919,309.944L244.137,305.378L255.129,305.761L256.368,310.214L256.367,310.214C256.484,310.583 256.326,310.955 255.875,311.216L251.12,313.961C250.334,314.415 248.959,314.358 248.051,313.834L243.594,311.261C243.053,310.949 242.802,310.542 242.851,310.167Z" style="fill:rgb(211,206,211);fill-rule:nonzero;"/>
                            <path d="M244.683,306.302L248.573,308.548C249.263,308.946 250.307,308.99 250.904,308.645L254.734,306.434C255.332,306.089 255.257,305.486 254.567,305.088L250.677,302.842C249.987,302.444 248.944,302.4 248.346,302.745L244.516,304.956C243.918,305.301 243.993,305.903 244.683,306.302Z" style="fill:rgb(239,241,254);fill-rule:nonzero;"/>
                        </g>
                        <g>
                            <path d="M251.202,314.989L251.2,314.988L251.204,314.975C251.215,314.904 251.237,314.834 251.27,314.766L252.488,310.2L263.48,310.583L264.719,315.036L264.718,315.036C264.835,315.405 264.677,315.777 264.226,316.038L259.471,318.783C258.685,319.237 257.311,319.18 256.402,318.656L251.945,316.083C251.404,315.771 251.152,315.363 251.202,314.989Z" style="fill:rgb(211,206,211);fill-rule:nonzero;"/>
                            <path d="M253.033,311.123L256.923,313.369C257.613,313.767 258.656,313.811 259.254,313.466L263.084,311.255C263.682,310.91 263.607,310.308 262.917,309.909L259.028,307.663C258.338,307.265 257.295,307.221 256.697,307.566L252.867,309.777C252.268,310.122 252.343,310.725 253.033,311.123Z" style="fill:rgb(239,241,254);fill-rule:nonzero;"/>
                        </g>
                        <g>
                            <path d="M259.553,319.81L259.551,319.809L259.555,319.796C259.566,319.725 259.588,319.655 259.621,319.587L260.839,315.021L271.831,315.404L273.07,319.857L273.069,319.857C273.186,320.226 273.028,320.598 272.577,320.859L267.822,323.604C267.036,324.058 265.661,324.001 264.753,323.477L260.296,320.904C259.754,320.592 259.503,320.185 259.553,319.81Z" style="fill:rgb(211,206,211);fill-rule:nonzero;"/>
                            <path d="M261.384,315.944L265.274,318.19C265.964,318.588 267.008,318.632 267.605,318.287L271.435,316.076C272.033,315.731 271.957,315.128 271.268,314.73L267.379,312.484C266.689,312.086 265.645,312.042 265.048,312.387L261.218,314.598C260.619,314.943 260.694,315.546 261.384,315.944Z" style="fill:rgb(239,241,254);fill-rule:nonzero;"/>
                        </g>
                        <g>
                            <path d="M157.922,283.641L159.342,279.912L161.832,281.157L163.155,280.393C163.941,279.939 165.315,279.996 166.224,280.52L202.817,301.647L238.535,319.505L239.948,323.351C239.975,323.407 239.995,323.462 240.009,323.518L240.014,323.531L240.012,323.532C240.094,323.881 239.93,324.227 239.504,324.474L234.749,327.219C233.963,327.673 232.589,327.616 231.68,327.092L158.62,284.911C157.994,284.548 157.753,284.059 157.922,283.641Z" style="fill:rgb(211,206,211);fill-rule:nonzero;"/>
                            <path d="M159.903,280.062L232.009,321.692C232.699,322.09 233.742,322.134 234.34,321.789L238.17,319.578C238.768,319.233 238.693,318.63 238.003,318.232L165.897,276.602C165.207,276.204 164.163,276.16 163.566,276.505L159.736,278.716C159.138,279.061 159.213,279.663 159.903,280.062Z" style="fill:rgb(239,241,254);fill-rule:nonzero;"/>
                        </g>
                        <g>
                            <path d="M134.179,258.229L134.177,258.228L134.181,258.215C134.192,258.144 134.214,258.074 134.247,258.006L135.465,253.44L146.457,253.823L147.696,258.276L147.695,258.276C147.812,258.645 147.654,259.017 147.203,259.278L142.448,262.023C141.661,262.477 140.287,262.42 139.379,261.896L134.922,259.323C134.381,259.011 134.13,258.603 134.179,258.229Z" style="fill:rgb(211,206,211);fill-rule:nonzero;"/>
                            <path d="M136.011,254.363L139.9,256.609C140.59,257.007 141.634,257.051 142.231,256.706L146.061,254.495C146.658,254.15 146.584,253.548 145.894,253.149L142.005,250.903C141.315,250.505 140.271,250.462 139.674,250.806L135.844,253.017C135.246,253.362 135.321,253.965 136.011,254.363Z" style="fill:rgb(239,241,254);fill-rule:nonzero;"/>
                        </g>
                        <g>
                            <path d="M142.53,263.05L142.528,263.049L142.532,263.036C142.543,262.965 142.565,262.895 142.598,262.827L143.816,258.261L154.808,258.644L156.047,263.097L156.046,263.098C156.163,263.467 156.005,263.839 155.554,264.1L150.799,266.845C150.012,267.299 148.638,267.242 147.73,266.718L143.273,264.145C142.732,263.832 142.48,263.425 142.53,263.05Z" style="fill:rgb(211,206,211);fill-rule:nonzero;"/>
                            <path d="M144.361,259.185L148.25,261.431C148.94,261.829 149.984,261.873 150.581,261.528L154.411,259.317C155.009,258.972 154.934,258.369 154.244,257.971L150.354,255.725C149.664,255.327 148.62,255.283 148.023,255.628L144.193,257.839C143.596,258.184 143.671,258.786 144.361,259.185Z" style="fill:rgb(239,241,254);fill-rule:nonzero;"/>
                        </g>
                        <g>
                            <path d="M150.88,267.871L150.878,267.87L150.882,267.857C150.893,267.786 150.915,267.716 150.948,267.649L152.166,263.083L163.158,263.466L164.397,267.919L164.396,267.919C164.513,268.288 164.355,268.66 163.904,268.921L159.149,271.666C158.363,272.12 156.989,272.063 156.08,271.539L151.623,268.966C151.082,268.653 150.831,268.246 150.88,267.871Z" style="fill:rgb(211,206,211);fill-rule:nonzero;"/>
                            <path d="M152.712,264.006L156.601,266.252C157.291,266.65 158.335,266.693 158.932,266.349L162.762,264.138C163.359,263.793 163.285,263.19 162.595,262.792L158.706,260.546C158.016,260.148 156.972,260.104 156.375,260.449L152.545,262.66C151.947,263.005 152.022,263.607 152.712,264.006Z" style="fill:rgb(239,241,254);fill-rule:nonzero;"/>
                        </g>
                        <g>
                            <path d="M159.231,272.693L159.229,272.692L159.233,272.679C159.244,272.608 159.266,272.538 159.299,272.47L160.517,267.904L171.509,268.287L172.748,272.74L172.747,272.74C172.864,273.109 172.706,273.481 172.255,273.742L167.5,276.487C166.714,276.941 165.339,276.884 164.431,276.36L159.974,273.787C159.433,273.475 159.182,273.067 159.231,272.693Z" style="fill:rgb(211,206,211);fill-rule:nonzero;"/>
                            <path d="M161.063,268.827L164.953,271.073C165.643,271.471 166.687,271.515 167.284,271.17L171.114,268.959C171.712,268.614 171.637,268.012 170.947,267.613L167.058,265.367C166.368,264.969 165.324,264.926 164.727,265.27L160.897,267.481C160.298,267.826 160.373,268.429 161.063,268.827Z" style="fill:rgb(239,241,254);fill-rule:nonzero;"/>
                        </g>
                        <g>
                            <path d="M167.582,277.514L167.58,277.513L167.584,277.5C167.595,277.429 167.617,277.359 167.65,277.291L168.868,272.725L179.86,273.108L181.099,277.561L181.098,277.561C181.215,277.93 181.057,278.302 180.606,278.563L175.851,281.308C175.065,281.762 173.69,281.705 172.782,281.181L168.325,278.608C167.784,278.296 167.533,277.889 167.582,277.514Z" style="fill:rgb(211,206,211);fill-rule:nonzero;"/>
                            <path d="M169.413,273.648L173.303,275.894C173.993,276.292 175.037,276.336 175.634,275.991L179.464,273.78C180.062,273.435 179.987,272.832 179.297,272.434L175.407,270.188C174.717,269.79 173.673,269.746 173.076,270.091L169.246,272.302C168.648,272.647 168.723,273.25 169.413,273.648Z" style="fill:rgb(239,241,254);fill-rule:nonzero;"/>
                        </g>
                        <g>
                            <path d="M175.932,282.335L175.93,282.334L175.934,282.321C175.945,282.25 175.967,282.18 176,282.113L177.218,277.547L188.21,277.93L189.449,282.383L189.448,282.383C189.565,282.752 189.407,283.124 188.956,283.385L184.201,286.13C183.414,286.584 182.04,286.527 181.132,286.003L176.675,283.43C176.134,283.117 175.883,282.71 175.932,282.335Z" style="fill:rgb(211,206,211);fill-rule:nonzero;"/>
                            <path d="M177.764,278.47L181.653,280.716C182.343,281.114 183.387,281.157 183.984,280.813L187.814,278.602C188.412,278.257 188.337,277.654 187.647,277.256L183.758,275.01C183.068,274.612 182.024,274.568 181.427,274.913L177.597,277.124C176.999,277.469 177.074,278.071 177.764,278.47Z" style="fill:rgb(239,241,254);fill-rule:nonzero;"/>
                        </g>
                        <g>
                            <path d="M184.283,287.156L184.281,287.155L184.285,287.142C184.296,287.071 184.318,287.001 184.351,286.933L185.569,282.367L196.561,282.75L197.8,287.203L197.799,287.204C197.916,287.573 197.758,287.945 197.307,288.206L192.552,290.951C191.765,291.405 190.391,291.348 189.483,290.824L185.026,288.251C184.485,287.939 184.234,287.531 184.283,287.156Z" style="fill:rgb(211,206,211);fill-rule:nonzero;"/>
                            <path d="M186.115,283.291L190.004,285.537C190.694,285.935 191.738,285.979 192.335,285.634L196.165,283.423C196.763,283.078 196.688,282.475 195.998,282.077L192.108,279.831C191.418,279.433 190.374,279.39 189.777,279.734L185.947,281.945C185.35,282.29 185.425,282.892 186.115,283.291Z" style="fill:rgb(239,241,254);fill-rule:nonzero;"/>
                        </g>
                        <g>
                            <path d="M192.634,291.978L192.632,291.977L192.636,291.964C192.647,291.893 192.669,291.823 192.702,291.755L193.92,287.189L204.912,287.572L206.151,292.025L206.15,292.025C206.267,292.394 206.109,292.766 205.658,293.027L200.903,295.772C200.117,296.226 198.742,296.169 197.834,295.645L193.377,293.072C192.836,292.76 192.585,292.352 192.634,291.978Z" style="fill:rgb(211,206,211);fill-rule:nonzero;"/>
                            <path d="M194.465,288.112L198.355,290.358C199.045,290.756 200.089,290.8 200.686,290.455L204.516,288.244C205.114,287.899 205.039,287.297 204.349,286.898L200.459,284.652C199.769,284.254 198.726,284.21 198.128,284.555L194.298,286.766C193.701,287.111 193.775,287.714 194.465,288.112Z" style="fill:rgb(239,241,254);fill-rule:nonzero;"/>
                        </g>
                        <g>
                            <path d="M200.985,296.799L200.983,296.798L200.987,296.785C200.998,296.714 201.02,296.644 201.053,296.577L202.271,292.011L213.263,292.394L214.502,296.847L214.501,296.847C214.618,297.216 214.46,297.588 214.009,297.849L209.254,300.594C208.467,301.048 207.093,300.991 206.185,300.467L201.728,297.894C201.186,297.581 200.935,297.174 200.985,296.799Z" style="fill:rgb(211,206,211);fill-rule:nonzero;"/>
                            <path d="M202.816,292.933L206.706,295.179C207.396,295.577 208.44,295.621 209.037,295.276L212.867,293.065C213.465,292.72 213.389,292.117 212.7,291.719L208.811,289.473C208.121,289.075 207.077,289.031 206.48,289.376L202.65,291.587C202.051,291.932 202.126,292.535 202.816,292.933Z" style="fill:rgb(239,241,254);fill-rule:nonzero;"/>
                        </g>
                        <g>
                            <path d="M209.335,301.62L209.333,301.619L209.337,301.606C209.348,301.535 209.37,301.465 209.403,301.397L210.621,296.831L221.613,297.214L222.852,301.667L222.851,301.667C222.968,302.036 222.81,302.408 222.359,302.669L217.604,305.414C216.818,305.868 215.443,305.811 214.535,305.287L210.078,302.714C209.537,302.402 209.286,301.995 209.335,301.62Z" style="fill:rgb(211,206,211);fill-rule:nonzero;"/>
                            <path d="M211.167,297.755L215.057,300.001C215.747,300.399 216.79,300.443 217.388,300.098L221.218,297.887C221.815,297.542 221.741,296.939 221.051,296.541L217.161,294.295C216.471,293.897 215.427,293.854 214.83,294.198L211,296.409C210.402,296.754 210.477,297.356 211.167,297.755Z" style="fill:rgb(239,241,254);fill-rule:nonzero;"/>
                        </g>
                        <g>
                            <path d="M217.686,306.442L217.684,306.441L217.688,306.428C217.699,306.357 217.721,306.287 217.754,306.219L218.972,301.653L229.964,302.036L231.203,306.489L231.202,306.489C231.319,306.858 231.161,307.23 230.71,307.491L225.955,310.236C225.168,310.69 223.794,310.633 222.886,310.109L218.429,307.536C217.888,307.224 217.637,306.816 217.686,306.442Z" style="fill:rgb(211,206,211);fill-rule:nonzero;"/>
                            <path d="M219.517,302.576L223.407,304.822C224.097,305.22 225.141,305.264 225.738,304.919L229.568,302.708C230.166,302.363 230.091,301.761 229.401,301.362L225.512,299.116C224.822,298.718 223.778,298.674 223.181,299.019L219.351,301.23C218.753,301.575 218.827,302.178 219.517,302.576Z" style="fill:rgb(239,241,254);fill-rule:nonzero;"/>
                        </g>
                        <g>
                            <path d="M226.037,311.263L226.035,311.262L226.039,311.249C226.05,311.178 226.072,311.108 226.105,311.041L227.323,306.475L238.315,306.858L239.554,311.311L239.553,311.311C239.67,311.68 239.512,312.052 239.061,312.313L234.306,315.058C233.52,315.512 232.146,315.455 231.237,314.931L226.78,312.358C226.238,312.045 225.987,311.637 226.037,311.263Z" style="fill:rgb(211,206,211);fill-rule:nonzero;"/>
                            <path d="M227.868,307.397L231.757,309.643C232.447,310.041 233.491,310.084 234.088,309.74L237.918,307.529C238.515,307.184 238.441,306.582 237.751,306.183L233.861,303.937C233.171,303.539 232.127,303.495 231.53,303.84L227.7,306.051C227.103,306.396 227.178,306.999 227.868,307.397Z" style="fill:rgb(239,241,254);fill-rule:nonzero;"/>
                        </g>
                        <g>
                            <path d="M234.387,316.084L234.385,316.083L234.389,316.07C234.4,315.999 234.422,315.929 234.455,315.861L235.673,311.295L246.665,311.678L247.904,316.131L247.903,316.131C248.02,316.5 247.862,316.872 247.411,317.133L242.656,319.878C241.87,320.332 240.495,320.275 239.587,319.751L235.13,317.178C234.589,316.866 234.338,316.459 234.387,316.084Z" style="fill:rgb(211,206,211);fill-rule:nonzero;"/>
                            <path d="M236.219,312.218L240.109,314.464C240.799,314.862 241.842,314.906 242.44,314.561L246.27,312.35C246.868,312.005 246.793,311.402 246.103,311.004L242.214,308.758C241.524,308.36 240.481,308.317 239.883,308.661L236.053,310.872C235.454,311.217 235.529,311.82 236.219,312.218Z" style="fill:rgb(239,241,254);fill-rule:nonzero;"/>
                        </g>
                        <g>
                            <path d="M242.738,320.905L242.736,320.904L242.74,320.891C242.751,320.82 242.773,320.75 242.806,320.682L244.024,316.116L255.016,316.499L256.255,320.952L256.254,320.953C256.371,321.322 256.213,321.694 255.762,321.955L251.007,324.7C250.221,325.154 248.846,325.097 247.938,324.573L243.481,322C242.94,321.687 242.689,321.28 242.738,320.905Z" style="fill:rgb(211,206,211);fill-rule:nonzero;"/>
                            <path d="M244.569,317.04L248.459,319.286C249.149,319.684 250.193,319.728 250.79,319.383L254.62,317.172C255.217,316.827 255.142,316.224 254.453,315.826L250.564,313.58C249.874,313.182 248.83,313.138 248.233,313.483L244.403,315.694C243.805,316.039 243.88,316.641 244.569,317.04Z" style="fill:rgb(239,241,254);fill-rule:nonzero;"/>
                        </g>
                        <g>
                            <path d="M251.089,325.727L251.087,325.726L251.091,325.713C251.102,325.642 251.124,325.572 251.157,325.505L252.375,320.939L263.367,321.322L264.606,325.775L264.605,325.775C264.722,326.144 264.564,326.516 264.113,326.777L259.358,329.522C258.571,329.976 257.197,329.919 256.289,329.395L251.832,326.822C251.29,326.509 251.039,326.101 251.089,325.727Z" style="fill:rgb(211,206,211);fill-rule:nonzero;"/>
                            <path d="M252.92,321.861L256.809,324.107C257.499,324.505 258.543,324.548 259.14,324.204L262.97,321.993C263.567,321.648 263.492,321.045 262.803,320.647L258.914,318.401C258.224,318.003 257.18,317.959 256.583,318.304L252.753,320.515C252.155,320.86 252.23,321.463 252.92,321.861Z" style="fill:rgb(239,241,254);fill-rule:nonzero;"/>
                        </g>
                    </g>
                    <path d="M177.734,216.338L323.561,300.531L329.534,297.083L183.707,212.889L177.734,216.338Z" style="fill:rgb(204,208,188);fill-rule:nonzero;"/>
                    <path d="M249.465,347.025L307.666,307.5L323.561,298.323L323.561,300.531L329.534,297.083L329.534,312.715L249.926,358.676L247.708,355.172L247.708,350.343L249.465,347.025Z" style="fill:rgb(173,170,146);fill-rule:nonzero;"/>
                    <path d="M323.561,298.322L320.945,299.832L319.638,300.588L318.332,301.343L317.021,302.099L315.715,302.854L314.408,303.61L314.405,303.61L313.102,304.362L311.791,305.117L307.667,307.5L161.84,223.307L165.964,220.924L166.559,221.267L167.274,220.855L167.274,220.169L168.581,219.413L169.176,219.756L169.887,219.348L169.887,218.661L171.198,217.906L171.789,218.249L172.504,217.837L172.504,217.151L173.811,216.395L174.406,216.738L175.117,216.326L175.117,215.64L177.734,214.129L323.561,298.322Z" style="fill:rgb(221,223,210);fill-rule:nonzero;"/>
                </g>
                <g>
                    <path d="M320.945,299.832L319.638,300.588L174.406,216.738L175.117,216.326L175.117,215.64L320.945,299.832Z" style="fill:rgb(202,198,183);fill-rule:nonzero;"/>
                </g>
                <g>
                    <path d="M318.332,301.343L317.021,302.099L171.789,218.249L172.504,217.837L172.504,217.151L318.332,301.343Z" style="fill:rgb(202,198,183);fill-rule:nonzero;"/>
                </g>
                <g>
                    <path d="M315.715,302.854L314.408,303.61L314.405,303.61L169.176,219.756L169.887,219.348L169.887,218.661L315.715,302.854Z" style="fill:rgb(202,198,183);fill-rule:nonzero;"/>
                </g>
                <g>
                    <path d="M313.102,304.362L311.791,305.117L166.559,221.267L167.274,220.855L167.274,220.169L313.102,304.362Z" style="fill:rgb(202,198,183);fill-rule:nonzero;"/>
                </g>
            </g>
            <g>
                <g>
                    <g>
                        <g>
                            <g>
                                <path d="M393.905,308.739L454.096,343.491L454.096,321.733L393.905,286.981L393.905,308.739Z" style="fill:rgb(203,201,192);fill-rule:nonzero;"/>
                                <path d="M398.611,281.883L454.883,314.372L454.096,321.733L393.905,286.981L398.611,281.883Z" style="fill:rgb(217,214,203);fill-rule:nonzero;"/>
                                <path d="M454.096,343.491L532.497,298.226L532.497,276.468L454.096,321.733L454.096,343.491Z" style="fill:rgb(171,160,144);fill-rule:nonzero;"/>
                                <path d="M528.166,272.063L525.333,273.698L523.917,274.515L522.501,275.333L521.085,276.15L515.421,279.42L514.896,279.723L514.892,279.723L514.005,280.238L512.589,281.055L511.173,281.873L509.761,282.69L505.513,285.143L504.096,285.96L502.68,286.778L498.432,289.23L497.016,290.044L495.6,290.862L494.184,291.679L456.63,313.362L454.882,314.372L398.612,281.884L437.914,259.19L438.557,259.563L439.331,259.117L439.331,258.373L440.747,257.555L441.389,257.928L442.159,257.482L442.159,256.741L443.575,255.924L444.221,256.293L444.991,255.847L444.991,255.107L446.407,254.289L447.053,254.658L447.823,254.212L447.823,253.471L449.239,252.654L449.885,253.026L450.655,252.577L450.655,251.837L452.071,251.019L452.714,251.391L453.487,250.942L453.487,250.201L454.904,249.384L455.546,249.756L456.319,249.311L456.319,248.566L457.736,247.749L458.378,248.121L459.151,247.676L459.151,246.931L460.564,246.114L461.21,246.486L461.98,246.041L461.98,245.296L463.396,244.479L464.042,244.851L464.812,244.406L464.812,243.661L466.228,242.844L466.874,243.216L467.644,242.771L467.644,242.026L469.06,241.209L469.703,241.581L470.476,241.136L470.476,240.391L471.892,239.574L528.166,272.063Z" style="fill:rgb(221,219,209);fill-rule:nonzero;"/>
                                <path d="M454.883,314.372L528.164,272.063L532.497,276.468L454.096,321.733L454.883,314.372Z" style="fill:rgb(187,179,165);fill-rule:nonzero;"/>
                                <path d="M397.14,308.654L450.861,339.67L450.861,324.993L397.14,293.978L397.14,308.654Z" style="fill:rgb(88,70,66);fill-rule:nonzero;"/>
                                <path d="M409.773,309.949L428.805,320.938L428.805,315.706L409.773,304.718L409.773,309.949Z" style="fill:rgb(56,39,32);fill-rule:nonzero;"/>
                                <path d="M439.329,322.097L448.034,327.123L449.234,326.43L440.529,321.405L439.329,322.097Z" style="fill:rgb(111,96,93);fill-rule:nonzero;"/>
                                <path d="M439.329,325.569L448.034,330.595L448.034,327.123L439.329,322.097L439.329,325.569Z" style="fill:rgb(88,70,66);fill-rule:nonzero;"/>
                                <path d="M449.234,329.902L448.034,330.595L448.034,327.123L449.234,326.43L449.234,329.902Z" style="fill:rgb(67,51,45);fill-rule:nonzero;"/>
                                <path d="M442.029,331.223L446.16,333.608L446.16,331.953L442.029,329.568L442.029,331.223Z" style="fill:rgb(149,255,64);fill-rule:nonzero;"/>
                                <g>
                                    <path d="M409.773,304.718L428.806,315.706L428.806,319.149L409.773,308.16L409.773,304.718Z" style="fill:rgb(56,39,32);fill-rule:nonzero;"/>
                                    <path d="M428.806,320.938L409.773,312.6L409.773,309.142L428.806,320.131L428.806,320.938Z" style="fill:rgb(56,39,32);fill-rule:nonzero;"/>
                                    <path d="M411.81,311.125L428.805,320.938L428.805,323.588L409.773,312.6L411.81,311.125Z" style="fill:rgb(67,51,45);fill-rule:nonzero;"/>
                                    <path d="M400.442,302.773L409.773,308.16L409.773,309.142L400.442,303.755L400.442,302.773Z" style="fill:rgb(34,12,4);fill-rule:nonzero;"/>
                                    <path d="M438.137,324.536L438.137,325.518L428.806,320.131L428.806,319.149L438.137,324.536Z" style="fill:rgb(34,12,4);fill-rule:nonzero;"/>
                                </g>
                            </g>
                            <g>
                                <path d="M428.806,318.329L428.806,319.311L411.81,309.498L411.81,308.516L428.806,318.329Z" style="fill:rgb(34,12,4);fill-rule:nonzero;"/>
                                <path d="M409.773,308.16L411.81,308.516L411.81,309.498L409.773,309.142L409.773,308.16Z" style="fill:rgb(34,12,4);fill-rule:nonzero;"/>
                            </g>
                        </g>
                        <g>
                            <path d="M526.75,272.88L525.333,273.698L469.703,241.581L470.476,241.136L470.476,240.391L526.75,272.88Z" style="fill:rgb(202,198,183);fill-rule:nonzero;"/>
                        </g>
                        <g>
                            <path d="M523.917,274.515L522.501,275.333L466.874,243.216L467.644,242.771L467.644,242.026L523.917,274.515Z" style="fill:rgb(202,198,183);fill-rule:nonzero;"/>
                        </g>
                        <g>
                            <path d="M521.085,276.15L519.669,276.968L464.042,244.851L464.812,244.406L464.812,243.661L521.085,276.15Z" style="fill:rgb(202,198,183);fill-rule:nonzero;"/>
                        </g>
                        <g>
                            <path d="M518.253,277.785L516.837,278.603L461.21,246.486L461.98,246.041L461.98,245.296L518.253,277.785Z" style="fill:rgb(202,198,183);fill-rule:nonzero;"/>
                        </g>
                        <g>
                            <path d="M515.421,279.42L514.896,279.723L514.892,279.723L514.005,280.238L461.944,250.18L458.378,248.121L459.151,247.676L459.151,246.931L515.421,279.42Z" style="fill:rgb(202,198,183);fill-rule:nonzero;"/>
                        </g>
                        <g>
                            <path d="M512.589,281.055L511.173,281.873L461.684,253.3L455.546,249.756L456.319,249.311L456.319,248.566L461.816,251.738L512.589,281.055Z" style="fill:rgb(202,198,183);fill-rule:nonzero;"/>
                        </g>
                        <g>
                            <path d="M509.761,282.69L508.345,283.508L461.422,256.417L452.714,251.391L453.487,250.942L453.487,250.201L461.553,254.858L509.761,282.69Z" style="fill:rgb(202,198,183);fill-rule:nonzero;"/>
                        </g>
                        <g>
                            <path d="M506.929,284.325L505.513,285.143L461.159,259.533L449.885,253.026L450.655,252.577L450.655,251.837L461.29,257.975L506.929,284.325Z" style="fill:rgb(202,198,183);fill-rule:nonzero;"/>
                        </g>
                        <g>
                            <path d="M504.096,285.96L502.68,286.778L460.896,262.654L446.407,254.289L447.053,254.658L447.823,254.212L447.823,253.471L461.027,261.096L504.096,285.96Z" style="fill:rgb(202,198,183);fill-rule:nonzero;"/>
                        </g>
                        <g>
                            <path d="M501.264,287.595L499.848,288.413L460.633,265.774L443.575,255.924L444.221,256.293L444.991,255.847L444.991,255.107L460.765,264.212L501.264,287.595Z" style="fill:rgb(202,198,183);fill-rule:nonzero;"/>
                        </g>
                        <g>
                            <path d="M498.432,289.23L497.016,290.044L460.37,268.887L441.389,257.928L442.159,257.482L442.159,256.741L460.502,267.333L498.432,289.23Z" style="fill:rgb(202,198,183);fill-rule:nonzero;"/>
                        </g>
                        <g>
                            <path d="M495.6,290.862L494.184,291.679L460.108,272.004L438.557,259.563L439.331,259.117L439.331,258.373L460.239,270.446L495.6,290.862Z" style="fill:rgb(202,198,183);fill-rule:nonzero;"/>
                        </g>
                    </g>
                    <g>
                        <g>
                            <g>
                                <path d="M405.458,305.669L406.352,306.184L405.498,306.676L404.155,307.454L403.261,307.968L400.137,306.165L400.137,304.406L400.892,304.016L401.793,303.552L404.826,305.304L405.458,305.669Z" style="fill:rgb(94,102,173);fill-rule:nonzero;"/>
                                <path d="M400.137,304.41L400.137,306.165L403.261,307.972L403.261,306.213L400.137,304.41Z" style="fill:rgb(93,101,172);fill-rule:nonzero;"/>
                                <path d="M436.884,323.815L438.136,324.538L438.136,324.848L437.556,325.184L435.395,326.432L432.195,324.672L433.753,323.771L434.432,323.381L435.282,322.888L436.884,323.815Z" style="fill:rgb(94,102,173);fill-rule:nonzero;"/>
                                <path d="M435.282,322.888L434.432,323.381L433.753,323.771L432.195,324.672L403.261,307.968L404.155,307.454L405.498,306.676L406.352,306.184L409.772,308.162L411.812,308.516L428.804,318.329L428.804,319.147L433.764,322.012L434.388,322.373L435.282,322.888Z" style="fill:rgb(94,102,173);fill-rule:nonzero;"/>
                            </g>
                        </g>
                        <g>
                            <g>
                                <path d="M433.764,322.012L434.388,322.373L433.538,322.866L432.837,323.267L432.195,323.64L404.155,307.454L403.261,306.935L404.604,306.158L405.458,305.669L406.352,306.184L409.772,308.162L411.812,308.516L428.804,318.329L428.804,319.147L433.764,322.012Z" style="fill:rgb(94,103,175);fill-rule:nonzero;"/>
                            </g>
                        </g>
                        <path d="M401.793,303.552L404.826,305.304L403.976,305.797L403.261,306.209L400.137,304.406L400.852,303.994L401.706,303.501L401.793,303.552Z" style="fill:rgb(97,106,179);fill-rule:nonzero;"/>
                        <path d="M435.282,322.888L436.884,323.815L436.034,324.304L435.395,324.672L433.753,323.771L432.837,323.267L432.195,322.917L432.91,322.505L433.764,322.012L434.388,322.373L435.282,322.888Z" style="fill:rgb(97,106,179);fill-rule:nonzero;"/>
                    </g>
                    <path d="M432.195,322.917L432.195,324.672L435.395,326.432L435.395,324.672L432.195,322.917Z" style="fill:rgb(93,101,172);fill-rule:nonzero;"/>
                    <path d="M436.884,323.815L438.137,324.536L438.136,324.848L435.395,326.432L435.395,324.672L436.884,323.815Z" style="fill:rgb(82,90,168);fill-rule:nonzero;"/>
                    <path d="M403.261,306.935L403.261,307.968L432.195,324.672L432.195,323.64L403.261,306.935Z" style="fill:rgb(93,101,172);fill-rule:nonzero;"/>
                </g>
            </g>
            <g>
                <g>
                    <g>
                        <g>
                            <g>
                                <path d="M424.723,182.05L411.738,103.521C411.425,101.627 409.777,99.357 407.949,98.302L316.107,45.277C314.279,44.221 312.883,44.734 312.897,46.455L295.868,127.999L297.8,149.336L426.205,211.657L424.723,182.05Z" style="fill:rgb(221,219,209);fill-rule:nonzero;"/>
                                <path d="M222.999,66.872L314.032,44.763L408.024,110.854L350.067,180.988L254.49,152.158L222.999,66.872Z" style="fill:rgb(221,219,209);fill-rule:nonzero;"/>
                                <path d="M340.087,238.021L209.268,162.498L220.944,69.405C221.242,67.025 223.134,66.157 225.3,67.407L333.261,129.734C335.426,130.984 337.145,133.936 337.219,136.531L340.087,238.021Z" style="fill:rgb(221,219,209);fill-rule:nonzero;"/>
                                <path d="M212.639,164.443L224,73.863C224.214,72.157 225.57,71.535 227.122,72.431L331.091,132.453C332.643,133.349 333.875,135.465 333.928,137.325L336.718,236.075L212.639,164.443Z" style="fill:rgb(88,70,66);fill-rule:nonzero;"/>
                                <path d="M340.084,238.024L340.084,261.79L211.979,189.068L209.267,186.261L209.267,162.499L340.084,238.024Z" style="fill:rgb(203,201,192);fill-rule:nonzero;"/>
                                <g>
                                    <path d="M237.967,203.755L234.59,213.358L323.807,264.866L320.43,251.363L237.967,203.755Z" style="fill:rgb(171,160,144);fill-rule:nonzero;"/>
                                    <path d="M237.967,203.755L234.59,213.358L230.941,215.465L227.564,201.962L237.967,203.755Z" style="fill:rgb(187,179,165);fill-rule:nonzero;"/>
                                    <path d="M342.795,264.593L211.979,189.068L211.979,204.517L230.941,215.465L234.318,205.862L316.78,253.471L320.157,266.973L342.795,280.042L342.795,264.593Z" style="fill:rgb(197,194,184);fill-rule:nonzero;"/>
                                </g>
                                <path d="M340.084,261.79L342.795,264.593L211.979,189.068L209.267,186.265L340.084,261.79Z" style="fill:rgb(171,160,144);fill-rule:nonzero;"/>
                                <path d="M334.409,247.753L214.942,178.779C213.669,178.044 212.638,176.073 212.638,174.376L212.638,164.444L336.713,236.079L336.713,246.011C336.713,247.708 335.681,248.488 334.409,247.753Z" style="fill:rgb(79,60,56);fill-rule:nonzero;"/>
                                <path d="M317.906,219.053L231.993,169.455C228.835,167.632 226.43,162.724 226.622,158.494L229.74,89.624C229.931,85.393 232.647,83.442 235.805,85.265L321.718,134.863C324.876,136.686 327.281,141.594 327.089,145.824L323.971,214.694C323.78,218.924 321.064,220.876 317.906,219.053Z" style="fill:url(#_Linear1);fill-rule:nonzero;"/>
                                <path d="M235.805,85.264L256.002,96.924C256.288,97.427 256.544,97.915 256.76,98.383C262.329,110.439 254.234,154.885 246.573,155.32C235.549,155.947 226.623,158.493 226.623,158.493L229.741,89.623C229.932,85.392 232.647,83.44 235.805,85.264Z" style="fill:url(#_Linear2);fill-rule:nonzero;"/>
                                <path d="M318.975,206.842C291.73,196.051 255.106,174.136 243.554,163.3C240.602,160.531 237.939,155.82 237.591,151.132C236.73,139.517 237.254,114.158 240.118,95.319C240.587,92.234 241.855,90.223 243.68,89.81L321.718,134.862C324.876,136.685 327.281,141.593 327.089,145.823L324.359,206.128C323.16,207.5 321.252,207.744 318.975,206.842Z" style="fill:rgb(190,212,254);fill-rule:nonzero;"/>
                                <path d="M316.627,193.322C316.627,193.322 278.566,178.041 246.976,153.112C246.976,153.112 245.171,127.525 249.199,104.001C249.199,104.001 278.606,123.528 318.85,144.211C318.85,144.211 315.918,168.229 316.627,193.322Z" style="fill:rgb(94,129,242);fill-rule:nonzero;"/>
                            </g>
                            <path d="M330.209,240.757L326.098,238.383C325.456,238.013 324.936,237.019 324.936,236.164C324.936,235.309 325.456,234.915 326.098,235.286L330.209,237.66C330.851,238.03 331.371,239.024 331.371,239.879C331.371,240.734 330.851,241.127 330.209,240.757Z" style="fill:rgb(141,242,61);fill-rule:nonzero;"/>
                        </g>
                        <path d="M426.204,211.656L340.087,238.021L337.22,136.532L411.738,103.521L424.723,182.051L426.204,211.656Z" style="fill:rgb(187,179,165);fill-rule:nonzero;"/>
                        <path d="M342.795,280.042L342.795,264.593L340.084,261.79L340.084,238.024L424.721,182.05L426.656,220.678L342.795,280.042Z" style="fill:rgb(171,160,144);fill-rule:nonzero;"/>
                    </g>
                    <path d="M256.787,121.117L251.447,117.591L251.801,115.059L257.141,118.586L256.787,121.117Z" style="fill:rgb(190,212,254);fill-rule:nonzero;"/>
                </g>
                <path d="M237.459,157.527C235.771,153.946 236.09,149.726 235.999,148.996C235.908,148.266 231.163,154.242 229.019,155.155C226.875,156.067 226.784,155.201 226.784,155.201C226.784,155.201 226.673,157.311 226.624,158.212C226.588,158.875 227.026,162.587 228.631,165.593C229.207,166.673 231.744,163.709 234.618,162.614C237.492,161.519 242.614,164.432 242.614,164.432C242.614,164.432 238.861,160.501 237.459,157.527Z" style="fill:rgb(79,106,119);fill-rule:nonzero;"/>
            </g>
        </g>
    </g>
    <defs>
        <linearGradient id="_Linear1" x1="0" y1="0" x2="1" y2="0" gradientUnits="userSpaceOnUse" gradientTransform="matrix(37.41,-64.7961,64.7961,37.41,258.151,184.556)"><stop offset="0" style="stop-color:rgb(71,70,72);stop-opacity:1"/><stop offset="0.03" style="stop-color:rgb(71,70,72);stop-opacity:1"/><stop offset="0.15" style="stop-color:rgb(67,96,110);stop-opacity:1"/><stop offset="1" style="stop-color:rgb(67,96,110);stop-opacity:1"/></linearGradient>
        <linearGradient id="_Linear2" x1="0" y1="0" x2="1" y2="0" gradientUnits="userSpaceOnUse" gradientTransform="matrix(30.3372,1.0594,-1.0594,30.3372,227.916,121.461)"><stop offset="0" style="stop-color:rgb(64,63,65);stop-opacity:1"/><stop offset="0.03" style="stop-color:rgb(64,63,65);stop-opacity:1"/><stop offset="0.35" style="stop-color:rgb(67,96,110);stop-opacity:1"/><stop offset="1" style="stop-color:rgb(67,96,110);stop-opacity:1"/></linearGradient>
    </defs>
</svg>
